<svg width="40" height="49" viewBox="0 0 40 49" fill="none" xmlns="http://www.w3.org/2000/svg">
<path d="M33.4068 25.9826C33.4758 33.3837 39.9285 35.8466 40 35.8781C39.9454 36.0518 38.969 39.388 36.6004 42.834C34.5529 45.8133 32.4279 48.7816 29.0803 48.8431C25.7909 48.9035 24.7332 46.9012 20.9726 46.9012C17.2131 46.9012 16.038 48.7816 12.9242 48.9035C9.69297 49.0252 7.2324 45.6818 5.16788 42.7134C0.949265 36.6415 -2.27463 25.5556 2.05424 18.0725C4.20474 14.3564 8.04783 12.0031 12.2192 11.9428C15.3922 11.8825 18.3871 14.068 20.3268 14.068C22.2653 14.068 25.9048 11.4398 29.7309 11.8258C31.3326 11.8921 35.8287 12.4699 38.7157 16.677C38.4831 16.8206 33.351 19.795 33.4068 25.9826V25.9826ZM27.2249 7.80869C28.9404 5.74137 30.095 2.86348 29.78 0C27.3072 0.0989411 24.3171 1.64046 22.5435 3.70663C20.9539 5.53633 19.5618 8.46487 19.9374 11.2717C22.6936 11.484 25.5093 9.87731 27.2249 7.80869" fill="black"/>
</svg>
