<svg width="70" height="82" viewBox="0 0 70 82" fill="none" xmlns="http://www.w3.org/2000/svg">
<path d="M67.3077 46.5769C67.3077 41.4792 64.7254 37.3462 61.5385 37.3462C61.5108 37.3462 61.49 37.3577 61.4623 37.3577C57.9731 22.8169 47.4477 12.25 35 12.25C22.5523 12.25 12.0246 22.8192 8.53771 37.3577C8.51001 37.3554 8.48694 37.3462 8.46155 37.3462C5.27463 37.3462 2.69232 41.4792 2.69232 46.5769C2.69232 51.4392 5.04848 55.3808 8.03232 55.7385C10.8546 71.0823 21.8439 81.1923 35 81.1923C48.1539 81.1923 59.1454 71.0823 61.9654 55.7385C64.9516 55.3808 67.3077 51.4392 67.3077 46.5769Z" fill="#F6DDCD"/>
<path d="M23.4615 48.8846C22.1877 48.8846 21.1538 47.8531 21.1538 46.5769V41.9616C21.1538 40.6877 22.1877 39.6539 23.4615 39.6539C24.7354 39.6539 25.7692 40.6877 25.7692 41.9616V46.5769C25.7692 47.8531 24.7354 48.8846 23.4615 48.8846ZM46.5385 48.8846C45.2623 48.8846 44.2308 47.8531 44.2308 46.5769V41.9616C44.2308 40.6877 45.2623 39.6539 46.5385 39.6539C47.8146 39.6539 48.8461 40.6877 48.8461 41.9616V46.5769C48.8461 47.8531 47.8146 48.8846 46.5385 48.8846Z" fill="#662113"/>
<path d="M35 71.9616C25.3054 71.9616 22.3285 69.4762 21.83 68.9777C20.9277 68.0754 20.9277 66.6169 21.83 65.7146C22.7023 64.84 24.1008 64.8146 25.0054 65.6316C25.19 65.7654 27.5439 67.3462 35 67.3462C42.7423 67.3462 44.9831 65.6408 45.0062 65.6223C45.9062 64.7246 47.3162 64.7685 48.2208 65.6708C49.1231 66.5731 49.0723 68.0777 48.1723 68.98C47.6716 69.4762 44.6946 71.9616 35 71.9616ZM37.3077 60.4231H32.6923C31.4185 60.4231 30.3846 59.3916 30.3846 58.1154C30.3846 56.8392 31.4185 55.8077 32.6923 55.8077H37.3077C38.5839 55.8077 39.6154 56.8392 39.6154 58.1154C39.6154 59.3916 38.5839 60.4231 37.3077 60.4231Z" fill="#C1694F"/>
<path d="M69.6154 29.6154C69.6154 27.5592 68.5331 25.7685 66.9131 24.7461C67.1577 24.1069 67.3077 23.4192 67.3077 22.6923C67.3077 19.7477 65.0946 17.3477 62.2469 16.9946C62.5192 16.2492 62.6923 15.4554 62.6923 14.6154C62.6923 10.7915 59.5931 7.6923 55.7692 7.6923C54.8577 7.6923 53.9923 7.87923 53.1962 8.19999C52.3977 5.25538 49.7346 3.07692 46.5385 3.07692C44.5308 3.07692 42.74 3.94461 41.4754 5.30846C40.5015 2.66384 37.9815 0.769226 35 0.769226C32.0185 0.769226 29.4985 2.66384 28.5246 5.30846C27.26 3.94461 25.4692 3.07692 23.4615 3.07692C20.2654 3.07692 17.6023 5.25538 16.8062 8.19999C16.0077 7.87923 15.1423 7.6923 14.2308 7.6923C10.4069 7.6923 7.30769 10.7915 7.30769 14.6154C7.30769 15.4554 7.48077 16.2492 7.75307 16.9946C4.90538 17.3477 2.69231 19.7477 2.69231 22.6923C2.69231 23.4192 2.84231 24.1069 3.08692 24.7461C1.46692 25.7685 0.384613 27.5592 0.384613 29.6154C0.384613 31.6415 1.43461 33.4185 3.01769 34.4477C2.81461 35.0962 2.69231 35.7977 2.69231 36.5385C2.69231 39.7254 4.75769 42.3077 7.30769 42.3077C8.06231 42.3077 8.76154 42.0608 9.39154 41.6592C10.4162 44.9892 11.9231 46.8815 11.9231 42.3077C11.9231 38.65 11.9531 36.4185 13.6769 32.89C16.4208 33.82 20.3877 33.2569 24.1377 31.0923C24.7885 30.7161 25.3954 30.3077 25.9677 29.8808C26.84 33.0238 30.5508 35.3846 35 35.3846C37.9908 35.3846 40.6238 34.3 42.3085 32.6454C43.4069 35.5508 46.9285 37.6923 51.1538 37.6923C53.6369 37.6923 55.8823 36.9492 57.5392 35.7515C58.1438 37.8608 58.1669 39.7277 58.1669 42.3077C58.1669 47.7261 59.7223 45.4415 60.7492 41.7538C61.34 42.1 61.9954 42.3077 62.6923 42.3077C65.2423 42.3077 67.3077 39.7254 67.3077 36.5385C67.3077 35.7977 67.1854 35.0962 66.9846 34.4477C68.5654 33.4185 69.6154 31.6415 69.6154 29.6154V29.6154Z" fill="#292F33"/>
</svg>
