<svg width="42" height="47" viewBox="0 0 42 47" fill="none" xmlns="http://www.w3.org/2000/svg">
<path fill-rule="evenodd" clip-rule="evenodd" d="M0.826565 0.715978C0.301684 1.2801 0 2.14836 0 3.27661V43.408C0 44.5362 0.301684 45.4045 0.846187 45.949L0.988445 46.0692L23.4749 23.5827V23.0774L0.968823 0.595795L0.826565 0.715978V0.715978Z" fill="url(#paint0_linear_6_181)"/>
<path fill-rule="evenodd" clip-rule="evenodd" d="M30.9558 31.1076L23.4554 23.6048V23.0799L30.9582 15.577L31.1201 15.6776L39.994 20.7204C42.535 22.1527 42.535 24.5123 39.994 25.9643L31.1201 31.007C31.1176 31.007 30.9558 31.1076 30.9558 31.1076V31.1076Z" fill="url(#paint1_linear_6_181)"/>
<path fill-rule="evenodd" clip-rule="evenodd" d="M31.1176 31.007L23.4553 23.3423L0.826538 45.9711C1.6531 46.8589 3.04379 46.9595 4.59882 46.0912L31.1176 31.007Z" fill="url(#paint2_linear_6_181)"/>
<path fill-rule="evenodd" clip-rule="evenodd" d="M31.1176 15.68L4.59882 0.615423C3.04625 -0.27246 1.6531 -0.152277 0.826538 0.735606L23.4528 23.3423L31.1176 15.68Z" fill="url(#paint3_linear_6_181)"/>
<path opacity="0.2" fill-rule="evenodd" clip-rule="evenodd" d="M30.9557 30.8452L4.61847 45.8092C3.14684 46.6554 1.83464 46.5965 0.988449 45.8288L0.846191 45.9711L0.988449 46.0912C1.83464 46.8565 3.14684 46.9178 4.61847 46.0716L31.1372 31.007L30.9557 30.8452V30.8452Z" fill="black"/>
<path opacity="0.12" fill-rule="evenodd" clip-rule="evenodd" d="M39.9916 25.7018L30.9361 30.8452L31.098 31.007L39.9719 25.9643C41.2424 25.2382 41.8679 24.2915 41.8679 23.3423C41.7869 24.2106 41.1419 25.0371 39.9916 25.7018V25.7018Z" fill="black"/>
<path opacity="0.25" fill-rule="evenodd" clip-rule="evenodd" d="M4.59884 0.877869L39.9915 20.9852C41.1419 21.6303 41.7869 22.4765 41.8875 23.3448C41.8875 22.398 41.2621 21.4488 39.9915 20.7228L4.59884 0.615429C2.05783 -0.83658 0 0.37261 0 3.27663V3.53907C0 0.63505 2.05783 -0.554517 4.59884 0.877869Z" fill="white"/>
<defs>
<linearGradient id="paint0_linear_6_181" x1="21.4558" y1="2.84524" x2="-14.5637" y2="12.4427" gradientUnits="userSpaceOnUse">
<stop stop-color="#00A0FF"/>
<stop offset="0.007" stop-color="#00A1FF"/>
<stop offset="0.26" stop-color="#00BEFF"/>
<stop offset="0.512" stop-color="#00D2FF"/>
<stop offset="0.76" stop-color="#00DFFF"/>
<stop offset="1" stop-color="#00E3FF"/>
</linearGradient>
<linearGradient id="paint1_linear_6_181" x1="43.3006" y1="23.3434" x2="-0.617545" y2="23.3434" gradientUnits="userSpaceOnUse">
<stop stop-color="#FFE000"/>
<stop offset="0.409" stop-color="#FFBD00"/>
<stop offset="0.775" stop-color="#FFA500"/>
<stop offset="1" stop-color="#FF9C00"/>
</linearGradient>
<linearGradient id="paint2_linear_6_181" x1="26.9511" y1="27.512" x2="-1.96553" y2="76.1804" gradientUnits="userSpaceOnUse">
<stop stop-color="#FF3A44"/>
<stop offset="1" stop-color="#C31162"/>
</linearGradient>
<linearGradient id="paint3_linear_6_181" x1="-4.86968" y1="-12.6336" x2="8.03089" y2="9.10248" gradientUnits="userSpaceOnUse">
<stop stop-color="#32A071"/>
<stop offset="0.069" stop-color="#2DA771"/>
<stop offset="0.476" stop-color="#15CF74"/>
<stop offset="0.801" stop-color="#06E775"/>
<stop offset="1" stop-color="#00F076"/>
</linearGradient>
</defs>
</svg>
